<?xml version="1.0" encoding="utf-8"?>
<!-- Generator: Adobe Illustrator 24.3.0, SVG Export Plug-In . SVG Version: 6.00 Build 0)  -->
<svg version="1.1" id="b5d15fab-7b8e-4619-ac67-5622dfe042d0"
	 xmlns="http://www.w3.org/2000/svg" xmlns:xlink="http://www.w3.org/1999/xlink" x="0px" y="0px" viewBox="0 0 59.5 45.3"
	 style="enable-background:new 0 0 59.5 45.3;" xml:space="preserve">
<style type="text/css">
	.st0{clip-path:url(#SVGID_2_);}
	.st1{fill:#000066;}
	.st2{fill:#FFFFFF;}
	.st3{fill:#CC0000;}
</style>
<g>
	<defs>
		<rect id="SVGID_1_" width="59.5" height="45.3"/>
	</defs>
	<clipPath id="SVGID_2_">
		<use xlink:href="#SVGID_1_"  style="overflow:visible;"/>
	</clipPath>
	<g class="st0">
		<path class="st1" d="M0,0h60.5v45.3H0V0z"/>
		<polygon class="st2" points="0,21 0,23.6 3.7,23.6 16.3,14.4 12.7,11.8 		"/>
		<polygon class="st2" points="29,23.6 32.7,23.6 32.7,21 20,11.8 16.3,14.4 		"/>
		<polygon class="st2" points="32.7,0 29,0 16.3,9.2 20,11.8 32.7,2.6 		"/>
		<polygon class="st2" points="3.7,0 0,0 0,2.6 12.7,11.8 16.3,9.2 		"/>
		<path class="st2" d="M13.6,0v23.6H19V0H13.6z M0,7.9v7.9h32.7V7.9H0z"/>
		<path class="st3" d="M0,9.4v4.7h32.7V9.4H0z M14.7,0v23.6H18V0H14.7z M0,23.6l10.9-7.9h2.4L2.4,23.6H0z M0,0l10.9,7.9H8.4L0,1.8V0
			z M19.3,7.9L30.2,0h2.4L21.8,7.9H19.3z M32.7,23.6l-10.9-7.9h2.4l8.4,6.1V23.6z"/>
		<path class="st2" d="M28.3,37.1l-4.1,0.4l0.6,4.1l-2.9-3l-2.9,3l0.6-4.1l-4.1-0.4l3.6-2.1l-2.3-3.5l3.9,1.5l1.3-3.9l1.3,3.9
			l3.9-1.5L24.8,35L28.3,37.1z M46,40.9l-1-1.5l1.7,0.6l0.5-1.7l0.5,1.7l1.7-0.6l-1,1.5l1.5,0.9l-1.8,0.2l0.2,1.8l-1.2-1.3L46,43.7
			l0.2-1.8l-1.8-0.2L46,40.9z M46,14.2l-1-1.5l1.7,0.6l0.5-1.7l0.5,1.7l1.7-0.6l-1,1.5l1.5,0.9l-1.8,0.2l0.2,1.8l-1.2-1.3L46,17.1
			l0.2-1.8l-1.8-0.2L46,14.2z M36,25l-1-1.5l1.7,0.6l0.5-1.7l0.5,1.7l1.7-0.6l-1,1.5l1.5,1l-1.8,0.2l0.2,1.8l-1.2-1.3L36,27.9
			l0.2-1.8L34.4,26L36,25z M54.9,22.3l-1-1.5l1.7,0.6l0.5-1.7l0.5,1.7l1.7-0.6l-1,1.5l1.5,0.9l-1.8,0.1l0.2,1.8l-1.2-1.3l-1.2,1.3
			l0.2-1.8l-1.8-0.1L54.9,22.3z M51.2,30.2l-1,0.6l0.3-1.1L49.6,29l1.2-0.1l0.4-1.1l0.4,1.1l1.2,0.1l-0.9,0.7l0.3,1.1L51.2,30.2z"/>
	</g>
</g>
</svg>
