<?xml version="1.0" encoding="utf-8"?>
<!-- Generator: Adobe Illustrator 24.3.0, SVG Export Plug-In . SVG Version: 6.00 Build 0)  -->
<svg version="1.1" id="b5d15fab-7b8e-4619-ac67-5622dfe042d0"
	 xmlns="http://www.w3.org/2000/svg" xmlns:xlink="http://www.w3.org/1999/xlink" x="0px" y="0px" viewBox="0 0 59.5 45.3"
	 style="enable-background:new 0 0 59.5 45.3;" xml:space="preserve">
<style type="text/css">
	.st0{clip-path:url(#SVGID_2_);}
	.st1{fill:#FFFFFF;}
	.st2{fill:#BF0A30;}
</style>
<g>
	<g>
		<defs>
			<rect id="SVGID_1_" x="0" y="0" width="59.5" height="45.3"/>
		</defs>
		<clipPath id="SVGID_2_">
			<use xlink:href="#SVGID_1_"  style="overflow:visible;"/>
		</clipPath>
		<g class="st0">
			<path class="st1" d="M13.7,0h32.1v45.3H13.7V0z"/>
			<path class="st2" d="M-2.3,0h16v45.3h-16L-2.3,0z M45.8,0h16v45.3h-16V0z M18.5,21.9l-1.2,0.4l5.8,5.1c0.4,1.3-0.2,1.7-0.5,2.4
				l6.3-0.8l-0.2,6.3H30L29.7,29l6.3,0.7c-0.5-0.7-0.7-1.7-0.4-2.6l5.8-4.8l-1-0.4c-0.8-0.6,0.4-3.1,0.5-4.6c0,0-3.4,1.2-3.6,0.5
				l-0.9-1.6l-3.1,3.4c-0.3,0.1-0.5-0.1-0.6-0.3l1.4-7.1L32,13.5c-0.2,0.1-0.4,0-0.5-0.2c0,0,0,0,0,0L29.3,9l-2.2,4.5
				c-0.1,0.1-0.3,0.2-0.5,0.1l-2.1-1.2l1.3,7c-0.1,0.2-0.3,0.3-0.5,0.3c0,0-0.1,0-0.1-0.1l-2.9-3.3c-0.4,0.6-0.7,1.6-1.2,1.9
				s-2.2-0.4-3.3-0.7C18,18.8,19.3,21.1,18.5,21.9L18.5,21.9z"/>
		</g>
	</g>
</g>
</svg>
